<svg xmlns="http://www.w3.org/2000/svg" viewBox="0 0 512 512" role="img" aria-labelledby="title desc">
  <title id="title">SmurfDeck app icon</title>
  <desc id="desc">A dark control deck with illuminated blue keys</desc>
  <defs>
    <linearGradient id="shell" x1="0" y1="0" x2="0" y2="1">
      <stop stop-color="#182335"/>
      <stop offset="1" stop-color="#0C111A"/>
    </linearGradient>
    <linearGradient id="key" x1="0" y1="0" x2="0" y2="1">
      <stop stop-color="#1683FF"/>
      <stop offset="1" stop-color="#0754C8"/>
    </linearGradient>
    <filter id="glow" x="-50%" y="-50%" width="200%" height="200%">
      <feGaussianBlur stdDeviation="8" result="blur"/>
      <feMerge><feMergeNode in="blur"/><feMergeNode in="SourceGraphic"/></feMerge>
    </filter>
  </defs>
  <rect x="20" y="20" width="472" height="472" rx="96" fill="#0C111A" stroke="#1E2A3A" stroke-width="12"/>
  <path d="M96 105h320l45 56v232l-45 38H96l-45-38V161z" fill="url(#shell)" stroke="#33445A" stroke-width="10"/>
  <path d="M81 151h350" stroke="#0D6EFD" stroke-width="5"/>
  <path d="M81 151h88" stroke="#4FC3FF" stroke-width="5"/>
  <circle cx="184" cy="151" r="6" fill="#4FC3FF"/>
  <g fill="#111C2A" stroke="#2B3B50" stroke-width="6">
    <rect x="91" y="190" width="86" height="70" rx="13"/>
    <rect x="213" y="190" width="86" height="70" rx="13"/>
    <rect x="335" y="190" width="86" height="70" rx="13"/>
    <rect x="91" y="294" width="86" height="70" rx="13"/>
    <rect x="213" y="294" width="86" height="70" rx="13"/>
    <rect x="335" y="294" width="86" height="70" rx="13"/>
  </g>
  <rect x="97" y="196" width="74" height="58" rx="9" fill="url(#key)" stroke="#4FC3FF" stroke-width="4" filter="url(#glow)"/>
  <path d="M122 225h24m-12-12v24" stroke="#FFFFFF" stroke-width="6" stroke-linecap="round"/>
  <rect x="219" y="300" width="74" height="58" rx="9" fill="#0D6EFD" stroke="#4FC3FF" stroke-width="4"/>
  <path d="M244 329h24" stroke="#E6F0FF" stroke-width="6" stroke-linecap="round"/>
  <circle cx="392" cy="329" r="13" fill="#4FC3FF" filter="url(#glow)"/>
  <path d="M116 404h280" stroke="#1E2A3A" stroke-width="6" stroke-linecap="round"/>
  <path d="M116 404h92" stroke="#0D6EFD" stroke-width="6" stroke-linecap="round"/>
</svg>
